<svg width="24" height="25" viewBox="0 0 24 25" fill="none" xmlns="http://www.w3.org/2000/svg">
<path d="M19.5096 5.40022L19.6813 6.38537C20.1572 6.30242 20.5057 5.89114 20.5095 5.4081L19.5096 5.40022ZM20.539 1.66632C20.5433 1.11406 20.0992 0.66283 19.5469 0.658482C18.9946 0.654132 18.5434 1.09831 18.5391 1.65058L20.539 1.66632ZM15.5912 5.06817C15.0471 5.16301 14.6829 5.68096 14.7777 6.22504C14.8726 6.76912 15.3905 7.1333 15.9346 7.03846L15.5912 5.06817ZM22.8589 8.83566C22.67 8.31669 22.0962 8.04913 21.5772 8.23804C21.0582 8.42696 20.7907 9.00081 20.9796 9.51978L22.8589 8.83566ZM18.6846 19.6602C14.899 23.4458 8.83125 23.4776 5.13173 19.7781L3.71751 21.1923C8.219 25.6938 15.5532 25.62 20.0988 21.0744L18.6846 19.6602ZM5.13173 19.7781C1.4322 16.0785 1.46397 10.0108 5.24958 6.22518L3.83537 4.81097C-0.710212 9.35655 -0.783972 16.6908 3.71751 21.1923L5.13173 19.7781ZM5.24958 6.22518C9.03519 2.43957 15.1029 2.40781 18.8025 6.10733L20.2167 4.69312C15.7152 0.19163 8.38094 0.26539 3.83537 4.81097L5.24958 6.22518ZM20.5095 5.4081L20.539 1.66632L18.5391 1.65058L18.5096 5.39235L20.5095 5.4081ZM19.3378 4.41508L15.5912 5.06817L15.9346 7.03846L19.6813 6.38537L19.3378 4.41508ZM20.9796 9.51978C22.2135 12.9096 21.4483 16.8965 18.6846 19.6602L20.0988 21.0744C23.4231 17.7501 24.3535 12.9412 22.8589 8.83566L20.9796 9.51978Z" fill="black"/>
</svg>
